<?xml version="1.0" encoding="UTF-8"?>
<svg version="1.1" xmlns="http://www.w3.org/2000/svg" width="2030" height="2048">
<path d="M0 0 C7.11078087 0.01131478 14.22143634 0.00722401 21.33221263 -0.00540626 C68.85808417 -0.08765457 116.2044835 0.28017195 163.64422435 3.38570702 C164.77707047 3.45966006 165.9099166 3.5336131 167.0770914 3.60980713 C256.69711128 9.50424703 346.63326617 19.75882745 684.64422435 143.38570702 C685.51869212 143.91760643 686.39315989 144.44950585 687.29412669 144.99752343 C731.65771419 172.12379735 777.70602265 205.60296178 811.64422435 245.38570702 C812.54851197 246.42664559 813.45351966 247.46695885 814.3590681 248.50680077 C820.81665654 255.94524855 827.04746176 263.52182097 833.05731028 271.32613671 C834.19317247 272.80031108 835.33220847 274.27204215 836.47332591 275.74215233 C845.98447572 288.00191545 855.06745512 300.45511224 863.64422435 313.38570702 C864.16548899 314.16704003 864.68675364 314.94837304 865.22381419 315.7533828 C878.56081144 335.78962798 890.90736276 356.42835902 902.20574778 377.6806289 C903.16041675 379.47589911 904.11936758 381.26889926 905.08270091 383.05953515 C925.15785937 420.38657083 941.67614638 459.3922355 955.64422435 499.38570702 C955.88249949 500.06659386 956.12077464 500.7474807 956.36627024 501.44900048 C964.4983322 524.73467895 971.63077799 548.24317349 978.02111644 572.06441796 C978.61702514 574.28438071 979.21754579 576.50305442 979.81854075 578.72164452 C1003.18322195 665.41292422 1013.14571289 755.8090225 1019.83172435 845.13570702 C1019.91062907 846.18156975 1019.98953379 847.22743248 1020.07082957 848.30498803 C1020.5489162 854.70782766 1020.98404555 861.1125523 1021.39570922 867.51998341 C1021.56078482 870.08778141 1021.72850982 872.65541053 1021.89894217 875.22285855 C1023.70468985 902.72860639 1023.95804883 930.17731043 1023.94580692 957.73506582 C1023.94471537 962.62807849 1023.94967536 967.52107884 1023.95441234 972.41408879 C1023.96540688 984.00286403 1023.96600393 995.59160685 1023.95989817 1007.18038476 C1023.95388217 1018.96580643 1023.96613255 1030.751108 1023.98746824 1042.53650922 C1024.00534125 1052.80299455 1024.01104565 1063.06944258 1024.0078305 1073.3359428 C1024.00605599 1079.40187112 1024.00825186 1085.46771404 1024.02254504 1091.53362763 C1024.09453969 1124.91664978 1022.91243121 1158.07935389 1020.64422435 1191.38570702 C1020.58917212 1192.19655888 1020.53411989 1193.00741075 1020.47739941 1193.84283388 C1019.87756297 1202.63462324 1019.21049235 1211.41818305 1018.45672435 1220.19820702 C1018.30673487 1221.97744561 1018.30673487 1221.97744561 1018.15371531 1223.79262841 C1010.59970624 1312.79972634 999.01784185 1401.5617324 946.64422435 1573.38570702 C946.27904704 1574.32461785 946.27904704 1574.32461785 945.90649241 1575.28249657 C930.72151866 1614.24602349 913.29989131 1652.54295652 892.21502513 1688.6884414 C890.65552524 1691.36630195 889.11575661 1694.05479341 887.5778181 1696.74508202 C858.68598926 1746.88157165 822.15729955 1798.83027057 777.64422435 1836.38570702 C776.60802801 1837.28424858 775.57297733 1838.18411215 774.5387556 1839.08492577 C766.43883002 1846.1210045 758.14473393 1852.84161625 749.64422435 1859.38570702 C748.45385569 1860.30706444 748.45385569 1860.30706444 747.23943919 1861.24703515 C735.93783934 1869.98756559 724.55242243 1878.48985389 712.64422435 1886.38570702 C711.8126179 1886.94048729 710.98101146 1887.49526757 710.12420481 1888.06685936 C636.73283341 1936.92814277 555.82938417 1973.14582524 433.93810862 2006.81338036 C431.83625643 2007.3377948 429.73547691 2007.86628049 427.634947 2008.39596093 C328.27963931 2033.25799241 224.44983981 2041.81327041 107.64422435 2047.38570702 C106.37280589 2047.43018975 105.10138743 2047.47467247 103.79144114 2047.52050316 C72.74896637 2048.57650337 41.7014337 2048.58575617 10.64422435 2048.57320702 C8.65171131 2048.57302545 6.65919827 2048.57284392 4.66668522 2048.57267481 C-34.70625555 2048.56694786 -74.02624535 2048.39704901 -113.35577565 2046.38570702 C-114.41167897 2046.33243248 -115.46758229 2046.27915795 -116.55548269 2046.22426903 C-131.50263699 2045.46133899 -146.4307426 2044.49746677 -161.35577565 2043.38570702 C-162.31091054 2043.31523156 -163.26604543 2043.24475609 -164.2501238 2043.17214501 C-261.25789639 2035.98570605 -358.49926996 2024.1022838 -468.35577565 1992.38570702 C-469.18528737 1992.12896203 -470.01479909 1991.87221703 -470.86944753 1991.60769188 C-567.12676022 1961.71569986 -660.63202179 1917.84825029 -740.61456472 1851.82271874 C-743.13735285 1849.7406757 -745.68669335 1847.69163908 -748.23077565 1845.63570702 C-752.61123361 1842.04990486 -756.83361287 1838.31666196 -761.01983815 1834.50680077 C-763.13294447 1832.58804369 -765.26660453 1830.69847771 -767.41827565 1828.82320702 C-768.05765065 1828.2637539 -768.69702565 1827.70430077 -769.35577565 1827.12789452 C-770.76745608 1825.89818853 -772.18466701 1824.67481756 -773.60577565 1823.45601952 C-777.90159385 1819.7262044 -781.81150781 1815.91654451 -785.4846819 1811.57320702 C-787.67297354 1809.01487025 -789.94894594 1806.54841213 -792.23077565 1804.07320702 C-796.26979719 1799.63939391 -800.13084443 1795.10516118 -803.89483815 1790.43648827 C-805.68857801 1788.21282029 -807.49449949 1786.00372224 -809.31671315 1783.80367577 C-831.32077587 1757.14991484 -850.97591957 1728.25395285 -868.35577565 1698.38570702 C-868.78648366 1697.6490078 -869.21719167 1696.91230858 -869.66095144 1696.15328515 C-897.68595507 1648.09914013 -920.40268965 1597.99330382 -938.63696462 1545.4542495 C-939.3244325 1543.4759041 -940.01646975 1541.49921846 -940.70977956 1539.52291405 C-971.99266714 1449.93525756 -987.06087611 1355.88752443 -1001.04327565 1212.19820702 C-1001.14005605 1211.05233117 -1001.23683645 1209.90645531 -1001.33654958 1208.72585595 C-1002.0521118 1200.16977852 -1002.64943822 1191.60851184 -1003.18797475 1183.0397979 C-1003.30457788 1181.19549729 -1003.42318193 1179.35132254 -1003.54335195 1177.50725091 C-1006.66929179 1129.42925831 -1006.82502954 1081.41051399 -1006.74148309 1033.24839813 C-1006.73016718 1025.9677908 -1006.73425933 1018.68730596 -1006.74688894 1011.40670311 C-1006.8281187 963.30774108 -1006.48448475 915.39738078 -1003.35577565 867.38570702 C-1003.24743436 865.67208314 -1003.13938134 863.958441 -1003.03167897 862.24477684 C-1002.46624377 853.34583731 -1001.79372791 844.45853055 -1001.04327565 835.57320702 C-1000.93972768 834.31067101 -1000.83617971 833.048135 -1000.72949392 831.74734032 C-992.38677366 730.09322675 -978.99079204 628.51151749 -895.97979909 400.68502343 C-894.47956188 397.63718733 -892.99716843 394.58141164 -891.51983815 391.52242577 C-885.26339288 378.66504987 -878.25983649 366.33819252 -870.93829519 354.06002343 C-869.58238489 351.76865635 -868.25420821 349.46599545 -866.9456194 347.14742577 C-861.50249797 337.55289267 -855.47006709 328.37344782 -849.35577565 319.19820702 C-848.9365685 318.56839928 -848.51736135 317.93859154 -848.08545095 317.28969872 C-839.99025836 305.14908777 -831.64839459 293.19021041 -822.73077565 281.63570702 C-822.17792897 280.91673241 -821.62508229 280.1977578 -821.05548269 279.45699608 C-813.86787837 270.1301487 -806.44099218 261.03857139 -798.79571706 252.08443749 C-797.38979357 250.4258387 -796.00186839 248.75371647 -794.6174944 247.07711327 C-788.76275691 240.04016916 -782.5761159 233.42517603 -776.10577565 226.94820702 C-775.36126149 226.2028872 -774.61674733 225.45756737 -773.84967214 224.6896621 C-769.17469356 220.0614385 -764.35823711 215.65660153 -759.35577565 211.38570702 C-758.57025319 210.70955346 -758.57025319 210.70955346 -757.76886159 210.01974022 C-742.77583794 197.14766879 -727.38572653 184.94343631 -711.35577565 173.38570702 C-710.63776784 172.86621483 -709.91976003 172.34672265 -709.1799944 171.81148827 C-692.12268403 159.50111028 -674.42751206 148.14477564 -656.35577565 137.38570702 C-655.44746999 136.84252831 -654.53916433 136.2993496 -653.60333425 135.73971093 C-586.05697243 95.51876891 -512.16834396 66.73771943 -436.35577565 46.38570702 C-435.59730336 46.18159203 -434.83883107 45.97747704 -434.05737478 45.76717675 C-335.87983191 19.43057523 -233.6549618 8.73740914 0 0 Z " fill="#0066FF" transform="translate(1006.355775654316,-0.3857070207595825)"/>
<path d="M0 0 C10.67789684 -0.17250864 21.35552193 -0.23147074 32.03469849 -0.24453735 C33.26655632 -0.24626324 33.26655632 -0.24626324 34.52330017 -0.24802399 C76.52261125 -0.28873509 117.7249787 2.6071269 159.09719849 10.06796265 C160.28007446 10.28065796 161.46295044 10.49335327 162.68167114 10.7124939 C235.99312347 24.25027511 308.98030482 57.72941938 352.3833313 120.49276733 C398.6348227 189.988598 393.09719849 267.15043457 393.09719849 349.06796265 C304.65719849 349.06796265 216.21719849 349.06796265 125.09719849 349.06796265 C124.76719849 322.99796265 124.43719849 296.92796265 124.09719849 270.06796265 C118.93785074 244.27122392 114.11248456 227.40323604 96.09719849 209.06796265 C95.4848938 208.44276733 94.87258911 207.81757202 94.24172974 207.1734314 C85.43288342 198.85292197 74.80488945 194.01540491 63.47219849 190.19296265 C62.62633179 189.90679077 61.78046509 189.6206189 60.90896606 189.32577515 C49.80062448 185.77008016 38.96785919 184.73544283 27.34402466 184.80722046 C25.29725154 184.81789717 23.25136634 184.80728204 21.20462036 184.79452515 C-3.52069333 184.76616533 -28.71689796 190.36661822 -46.9982605 208.05307007 C-48.31598244 209.37541155 -49.61018569 210.72106902 -50.90280151 212.06796265 C-51.5769812 212.74600952 -52.25116089 213.4240564 -52.94577026 214.12265015 C-72.82160678 235.27089121 -75.70405146 265.47222394 -75.03463745 293.00497437 C-73.74601869 322.94388354 -57.51367233 347.2140732 -35.90280151 367.06796265 C-32.3041764 370.15581516 -28.6166805 373.12028471 -24.90280151 376.06796265 C-23.99401245 376.8053064 -23.08522339 377.54265015 -22.14889526 378.30233765 C-5.78459394 391.28918663 12.12453273 402.45583957 30.09719849 413.06796265 C30.82616333 413.49850952 31.55512817 413.9290564 32.30618286 414.37265015 C37.87715651 417.65026388 43.48028809 420.8698225 49.09719849 424.06796265 C50.00759888 424.58697144 50.91799927 425.10598022 51.85598755 425.64071655 C65.92300051 433.63974686 80.13667096 441.32915123 94.44168091 448.89071655 C102.88270021 453.35319786 111.28622718 457.87570035 119.65481567 462.47299194 C127.04468679 466.52070685 134.48917037 470.46091026 141.93862915 474.39733887 C154.79413098 481.19362515 167.53955565 488.14322971 180.15237427 495.38290405 C183.34510899 497.20981958 186.54670479 499.02053959 189.74954224 500.8296814 C214.79761425 514.99760037 239.35580531 529.77985339 263.09719849 546.06796265 C264.28925903 546.8853894 264.28925903 546.8853894 265.50540161 547.71932983 C284.73842488 560.97003655 303.63143041 575.17719067 320.83938599 590.9937439 C322.30745673 592.34243865 323.79122537 593.67430998 325.29251099 594.9859314 C336.99741853 605.24260462 348.53227075 616.23341461 358.10891724 628.5249939 C360.28695868 631.31066183 362.59450292 633.95796131 364.90969849 636.63046265 C394.07398947 671.62761183 410.54991757 714.16705633 416.40969849 759.00546265 C416.64898071 760.83258789 416.64898071 760.83258789 416.89309692 762.69662476 C419.29259295 782.48717007 419.33540598 802.34542382 419.34719849 822.25546265 C419.34793491 822.92301071 419.34867134 823.59055878 419.34943008 824.27833557 C419.36976925 846.98295958 418.63699092 869.49848887 416.2996521 892.09231567 C416.10554067 893.98655532 415.92312706 895.88198267 415.74124146 897.7774353 C414.37572363 911.88778616 412.03125282 925.59471998 408.73245239 939.38046265 C408.13051294 941.92702281 407.56824638 944.47916848 407.01516724 947.03671265 C399.23489819 981.84133653 382.40754003 1015.34771337 360.09719849 1043.06796265 C359.39457886 1043.94412231 359.39457886 1043.94412231 358.67776489 1044.83798218 C347.32226716 1058.85375293 334.50184588 1072.18527949 320.09719849 1083.06796265 C319.46217407 1083.56296265 318.82714966 1084.05796265 318.17288208 1084.56796265 C280.32993793 1114.04288034 234.84801713 1133.25452286 188.41165161 1144.50302124 C185.98401438 1145.09559008 183.56432829 1145.71550534 181.14407349 1146.3374939 C168.44091379 1149.54530149 155.66826878 1151.74688945 142.71389771 1153.67440796 C139.69056697 1154.12912051 136.67594245 1154.63116582 133.65969849 1155.13046265 C127.42611817 1156.07216662 121.16923345 1156.8225262 114.90969849 1157.56796265 C113.45188965 1157.74597412 113.45188965 1157.74597412 111.96463013 1157.92758179 C109.08162095 1158.26180091 106.19726068 1158.56778402 103.30880737 1158.85101318 C101.73925149 1159.00497997 100.17015777 1159.16369103 98.60140991 1159.32568359 C78.08888787 1161.38986704 57.63691425 1161.34155772 37.04574585 1161.26358032 C33.44309652 1161.25274296 29.84048437 1161.25316589 26.23782158 1161.25356197 C1.44420096 1161.25307737 -23.05232577 1160.89698504 -47.70211792 1157.96615601 C-50.56107415 1157.62650983 -53.42119845 1157.2985432 -56.28170776 1156.97225952 C-107.68550907 1151.04525816 -158.44120766 1138.08982826 -204.90280151 1115.06796265 C-205.78919312 1114.63097046 -206.67558472 1114.19397827 -207.58883667 1113.7437439 C-230.57039343 1102.31232098 -252.27769365 1087.76660717 -270.90280151 1070.06796265 C-272.27149114 1068.87319491 -273.64610127 1067.68515993 -275.02780151 1066.50546265 C-283.18846217 1059.37527238 -290.17563778 1051.54618383 -296.90280151 1043.06796265 C-297.76484277 1042.01876553 -298.62816315 1040.97061829 -299.49264526 1039.9234314 C-364.30393249 960.61441917 -357.90280151 860.87441529 -357.90280151 763.06796265 C-262.86280151 763.06796265 -167.82280151 763.06796265 -69.90280151 763.06796265 C-69.57280151 801.67796265 -69.24280151 840.28796265 -68.90280151 880.06796265 C-64.63438775 905.67844524 -55.73197232 928.4075099 -34.46530151 944.38046265 C-32.62679378 945.63292983 -30.77245978 946.86249067 -28.90280151 948.06796265 C-27.99143433 948.67253296 -27.08006714 949.27710327 -26.14108276 949.8999939 C-6.58841771 962.14375005 15.82574352 965.29543446 38.47219849 965.31796265 C39.1769632 965.31896973 39.88172791 965.31997681 40.60784912 965.3210144 C68.99363222 965.29367515 98.0191245 959.46274 119.09719849 939.06796265 C141.18430681 916.53472164 147.26822806 883.51839263 147.28469849 853.13046265 C147.29694458 851.94516968 147.30919067 850.75987671 147.32180786 849.53866577 C147.33965026 838.69643494 145.97973395 828.52736185 142.47219849 818.25546265 C142.21132446 817.49120972 141.95045044 816.72695679 141.68167114 815.93954468 C134.80430711 796.55495572 122.27325372 780.71315352 108.09719849 766.06796265 C107.19098755 765.12179077 106.28477661 764.1756189 105.35110474 763.20077515 C99.78270653 757.49810351 94.00905482 752.26936108 87.73342896 747.35800171 C85.92498857 745.93218867 84.13870964 744.48073918 82.35110474 743.02890015 C46.77951587 714.44069069 5.92254886 692.09222363 -33.90280151 670.06796265 C-35.03653198 669.44067261 -36.17026245 668.81338257 -37.33834839 668.16708374 C-47.73841718 662.41495515 -58.14837217 656.68076089 -68.56367493 650.95626831 C-83.41898222 642.79024215 -98.22855438 634.5564925 -112.90280151 626.06796265 C-113.81739136 625.54057495 -114.7319812 625.01318726 -115.67428589 624.46981812 C-122.77270533 620.3733681 -129.84628093 616.23615778 -136.90280151 612.06796265 C-138.5168689 611.11542603 -138.5168689 611.11542603 -140.1635437 610.14364624 C-159.87037908 598.46712924 -178.97349561 585.9623037 -197.90280151 573.06796265 C-198.83286011 572.43454956 -199.7629187 571.80113647 -200.72116089 571.14852905 C-219.24179789 558.46331507 -236.80692163 544.45881899 -253.39108276 529.33358765 C-254.80251461 528.06044539 -256.2204857 526.79418675 -257.66036987 525.55331421 C-262.93091177 521.00985584 -267.92309496 516.24040919 -272.84030151 511.31796265 C-273.63371948 510.52373901 -274.42713745 509.72951538 -275.24459839 508.91122437 C-280.09735562 504.00754314 -284.66594662 499.06083691 -288.91061401 493.6187439 C-291.11592685 490.79507864 -293.4426577 488.0975225 -295.77780151 485.38046265 C-301.68095686 478.29667623 -306.86228359 470.7830411 -311.90280151 463.06796265 C-312.28790894 462.48240601 -312.67301636 461.89684937 -313.0697937 461.29354858 C-331.18646833 433.42297146 -342.51462233 401.51197199 -347.23092651 368.69564819 C-347.52744919 366.63291355 -347.83520015 364.57210204 -348.14498901 362.51132202 C-348.66019271 359.05372878 -349.14680757 355.5929119 -349.61865234 352.12915039 C-349.80524124 350.77565444 -349.99719187 349.42288468 -350.19500732 348.07098389 C-352.07997791 335.13919971 -352.25978118 322.30862059 -352.21530151 309.25546265 C-352.21381104 308.1742514 -352.21232056 307.09304016 -352.21078491 305.97906494 C-352.16910111 289.14020894 -351.37968176 272.7426271 -348.90280151 256.06796265 C-348.60821421 253.87547118 -348.31527357 251.68275789 -348.02389526 249.48983765 C-340.78083553 196.98152374 -321.2890479 145.6686879 -284.96530151 106.31796265 C-283.15223057 104.34006707 -281.43241137 102.31599448 -279.71530151 100.25546265 C-269.52091201 88.63805767 -257.3194264 79.16848787 -244.90280151 70.06796265 C-243.96436401 69.37831421 -243.02592651 68.68866577 -242.05905151 67.9781189 C-210.34874572 45.27642271 -173.46669494 29.33912231 -135.8197937 19.58114624 C-132.97059198 18.81840783 -130.16028152 17.93170955 -127.34030151 17.06796265 C-117.71453208 14.28869119 -107.83125513 12.56357579 -97.99728394 10.69052124 C-96.32082257 10.35324499 -94.64561933 10.00672821 -92.98207092 9.61064148 C-86.43271149 8.06095131 -79.85673582 7.18953077 -73.18014526 6.3765564 C-71.3535714 6.15130028 -71.3535714 6.15130028 -69.49009705 5.92149353 C-66.91433294 5.60571226 -64.33826995 5.29236056 -61.76193237 4.98129272 C-57.90327339 4.51310332 -54.04664813 4.03020799 -50.18991089 3.54647827 C-33.42814223 1.48323287 -16.87890731 0.2939261 0 0 Z " fill="#FEFEFF" transform="translate(984.9028015136719,442.9320373535156)"/>
</svg>
